<svg width="16" height="16" fill="none" xmlns="http://www.w3.org/2000/svg"><path d="M11.772 2.666H4.23c-.861 0-1.562.701-1.562 1.563v7.541c0 .862.701 1.563 1.562 1.563h7.542c.862 0 1.563-.701 1.563-1.563V4.23c0-.862-.701-1.563-1.563-1.563zm-3.75 8.125A2.816 2.816 0 015.21 7.979a2.816 2.816 0 012.812-2.813 2.816 2.816 0 012.813 2.813 2.816 2.816 0 01-2.813 2.812zm3.125-5a.939.939 0 010-1.875.939.939 0 010 1.875z" fill="#fff"/><path d="M11.148 4.541a.313.313 0 100 .625.313.313 0 000-.625zm-3.125 1.25a2.19 2.19 0 00-2.187 2.188 2.19 2.19 0 002.187 2.187 2.19 2.19 0 002.188-2.187A2.19 2.19 0 008.023 5.79z" fill="#fff"/></svg>