<svg width="16" height="16" fill="none" xmlns="http://www.w3.org/2000/svg"><path d="M10.546 8.332c-.026.04-.026.08-.039.133a.322.322 0 00.285.345.319.319 0 00.337-.292c0-.04 0-.08.013-.146v-.146a3.59 3.59 0 00-.181-1.116 3.366 3.366 0 00-.752-1.222 3.263 3.263 0 00-1.451-.863 3.358 3.358 0 00-.816-.106c-.091 0-.182 0-.286.013l-.272.04a.302.302 0 00-.246.359c.026.172.194.292.35.252.078-.013.143-.027.22-.027h.04c.064 0 .129-.013.193-.013a2.53 2.53 0 011.84.784c.467.478.752 1.129.765 1.86v.146z" fill="#fff"/><path d="M12.257 8.625a.322.322 0 00.285.345.319.319 0 00.337-.292c.013-.146.013-.293.013-.439 0-.292-.026-.57-.065-.85A5.092 5.092 0 0011.44 4.64a4.865 4.865 0 00-3.11-1.474c-.13-.013-.272-.013-.401-.013-.143 0-.285 0-.428.013a4.695 4.695 0 00-.427.053.302.302 0 00-.247.359c.026.172.195.292.35.252l.26-.04c.038 0 .077-.013.116-.013.13-.013.26-.013.376-.013a4.288 4.288 0 013.084 1.301c.414.425.751.943.972 1.501.194.505.31 1.062.31 1.647v.133a1.112 1.112 0 00-.038.279z" fill="#fff"/><path d="M12.697 3.365a6.646 6.646 0 00-4.781-2.032c-.195 0-.39.014-.584.027-.194.013-.388.04-.583.08a.302.302 0 00-.246.358c.026.173.194.292.35.252l.26-.04c.09-.013.18-.026.271-.026.182-.013.35-.026.532-.026 1.684 0 3.213.703 4.327 1.832a6.331 6.331 0 011.789 4.436v.292c0 .08-.013.16-.013.253a.322.322 0 00.285.345.319.319 0 00.337-.292 6.963 6.963 0 00-1.944-5.458zm1.49 8.048l-2.293-1.261c-.765-.425-.79-.146-1.594.73-.195.213-.557.77-.985.664-.894-.226-2.566-1.567-3.11-2.178-.259-.292-1.373-1.687-1.386-2.138-.026-.69 1.451-1.036.972-2.35L4.767 2.527C3.808.271 1.126 3.883 1.347 5.57c.57 4.157 7.683 10.877 11.648 8.659.881-.505 2.073-2.271 1.192-2.816z" fill="#fff"/></svg>