<svg width="21" height="21" fill="none" xmlns="http://www.w3.org/2000/svg"><g clip-path="url(#clip0)"><path d="M17.258 7.19a1.769 1.769 0 00-1.513-1.375c-1.736-.194-3.494-.195-5.243-.194-1.75 0-3.507 0-5.243.194a1.768 1.768 0 00-1.512 1.376C3.503 8.25 3.5 9.409 3.5 10.5c0 1.09 0 2.248.244 3.308.171.745.78 1.294 1.513 1.376 1.736.194 3.493.195 5.242.194 1.75.001 3.507 0 5.243-.194a1.769 1.769 0 001.513-1.376c.244-1.06.245-2.217.245-3.309 0-1.091.002-2.249-.242-3.31zm-8.565 5.483v-4.63l4.451 2.322-4.45 2.308z" fill="#fff"/></g><defs><clipPath id="clip0"><path fill="#fff" transform="translate(3.5 3.5)" d="M0 0h14v14H0z"/></clipPath></defs></svg>