<svg width="14" height="14" viewBox="0 0 14 14" fill="none" xmlns="http://www.w3.org/2000/svg">
<path d="M9.54602 7.33215C9.52011 7.37199 9.52011 7.41183 9.50715 7.46496C9.49419 7.63761 9.62377 7.79697 9.79222 7.81025C9.96067 7.82354 10.1162 7.69073 10.1291 7.51808C10.1291 7.47824 10.1291 7.43839 10.1421 7.37199C10.1421 7.30559 10.1421 7.26575 10.1421 7.2259C10.1421 6.84076 10.0773 6.4689 9.96067 6.11032C9.80518 5.6455 9.53307 5.2338 9.20912 4.8885C8.80743 4.4768 8.31503 4.18462 7.75785 4.02525C7.49869 3.95885 7.21362 3.91901 6.9415 3.91901C6.8508 3.91901 6.7601 3.91901 6.65643 3.93229C6.56573 3.94557 6.47502 3.95885 6.38432 3.97213C6.21587 3.99869 6.09925 4.17134 6.13812 4.33071C6.16404 4.50336 6.33249 4.62288 6.48798 4.58304C6.56573 4.56976 6.63052 4.55648 6.70826 4.55648C6.72122 4.55648 6.73418 4.55648 6.74714 4.55648C6.81193 4.55648 6.87672 4.5432 6.9415 4.5432C7.65418 4.5432 8.31503 4.83538 8.78151 5.32676C9.248 5.80487 9.53307 6.45562 9.54602 7.18606V7.21262C9.54602 7.26575 9.54602 7.30559 9.54602 7.33215Z" fill="white"/>
<path d="M11.2567 7.62451C11.2437 7.79716 11.3733 7.95653 11.5417 7.96981C11.7102 7.98309 11.8657 7.85029 11.8786 7.67764C11.8916 7.53155 11.8916 7.38546 11.8916 7.23937C11.8916 6.9472 11.8657 6.6683 11.8268 6.38941C11.6583 5.32695 11.153 4.37074 10.4403 3.6403C9.62397 2.80362 8.53551 2.25911 7.33044 2.16614C7.20086 2.15286 7.05832 2.15286 6.92874 2.15286C6.78621 2.15286 6.64367 2.15286 6.50114 2.16614C6.3586 2.17942 6.21606 2.1927 6.07353 2.21927C5.90508 2.24583 5.78846 2.41848 5.82733 2.57785C5.85324 2.75049 6.0217 2.87002 6.17719 2.83018C6.2679 2.8169 6.34564 2.80362 6.43635 2.79034C6.47522 2.79034 6.51409 2.77706 6.55297 2.77706C6.68254 2.76377 6.81212 2.76378 6.92874 2.76378C7.36931 2.76378 7.78396 2.83018 8.18565 2.94971C8.88537 3.1622 9.50735 3.54734 10.0127 4.06528C10.4274 4.49027 10.7643 5.00821 10.9845 5.566C11.1789 6.07067 11.2955 6.62846 11.2955 7.21281C11.2955 7.25265 11.2955 7.30578 11.2955 7.34562C11.2696 7.45187 11.2567 7.53155 11.2567 7.62451Z" fill="white"/>
<path d="M11.6969 2.36529C10.466 1.10362 8.78144 0.333344 6.91551 0.333344C6.72115 0.333344 6.52678 0.346624 6.33241 0.359905C6.13804 0.373186 5.94368 0.399747 5.74931 0.439589C5.58086 0.466151 5.46424 0.6388 5.50311 0.798168C5.52903 0.970818 5.69748 1.09034 5.85297 1.0505C5.94368 1.03722 6.02142 1.02394 6.11213 1.01066C6.20283 0.997379 6.29354 0.984098 6.38424 0.984098C6.56565 0.970818 6.7341 0.957537 6.91551 0.957537C8.60003 0.957537 10.1291 1.66141 11.2434 2.79027C12.3448 3.91913 13.0316 5.48626 13.0316 7.22603C13.0316 7.319 13.0316 7.42524 13.0316 7.51821C13.0316 7.59789 13.0186 7.67758 13.0186 7.77054C13.0057 7.94319 13.1353 8.10256 13.3037 8.11584C13.4722 8.12912 13.6277 7.99631 13.6406 7.82366C13.6536 7.62445 13.6665 7.42524 13.6665 7.23931C13.6665 5.34017 12.915 3.61368 11.6969 2.36529Z" fill="white"/>
<path d="M13.1873 10.4132L10.8937 9.15155C10.1292 8.72657 10.1033 9.00546 9.29991 9.88199C9.10554 10.0945 8.74272 10.6523 8.31511 10.546C7.42102 10.3203 5.74946 8.9789 5.20524 8.36799C4.94608 8.07581 3.83171 6.68134 3.81875 6.22979C3.79283 5.5392 5.27002 5.1939 4.79059 3.87911L3.76692 1.52842C2.80804 -0.729297 0.125772 2.88306 0.346055 4.56971C0.916199 8.72657 8.03004 15.4466 11.9951 13.2287C12.8763 12.7241 14.0684 10.9577 13.1873 10.4132Z" fill="white"/>
</svg>
