<svg width="16" height="16" viewBox="0 0 16 16" fill="none" xmlns="http://www.w3.org/2000/svg">
<path d="M11.7721 2.66602H4.23047C3.36898 2.66602 2.66797 3.36702 2.66797 4.22852V11.7702C2.66797 12.6317 3.36898 13.3327 4.23047 13.3327H11.7721C12.6336 13.3327 13.3346 12.6317 13.3346 11.7702V4.22852C13.3346 3.36702 12.6336 2.66602 11.7721 2.66602ZM8.02214 10.791C6.47127 10.791 5.20964 9.52938 5.20964 7.97852C5.20964 6.42765 6.47127 5.16602 8.02214 5.16602C9.573 5.16602 10.8346 6.42765 10.8346 7.97852C10.8346 9.52938 9.573 10.791 8.02214 10.791ZM11.1471 5.79102C10.6302 5.79102 10.2096 5.37044 10.2096 4.85352C10.2096 4.33659 10.6302 3.91602 11.1471 3.91602C11.6641 3.91602 12.0846 4.33659 12.0846 4.85352C12.0846 5.37044 11.6641 5.79102 11.1471 5.79102Z" fill="white"/>
<path d="M11.1484 4.54102C10.976 4.54102 10.8359 4.68107 10.8359 4.85352C10.8359 5.02596 10.976 5.16602 11.1484 5.16602C11.3209 5.16602 11.4609 5.02596 11.4609 4.85352C11.4609 4.68107 11.3209 4.54102 11.1484 4.54102Z" fill="white"/>
<path d="M8.02344 5.79102C6.81738 5.79102 5.83594 6.77246 5.83594 7.97852C5.83594 9.18457 6.81738 10.166 8.02344 10.166C9.22949 10.166 10.2109 9.18457 10.2109 7.97852C10.2109 6.77246 9.22949 5.79102 8.02344 5.79102Z" fill="white"/>
</svg>
