<svg width="16" height="16" viewBox="0 0 16 16" fill="none" xmlns="http://www.w3.org/2000/svg">
<path d="M10.546 8.33215C10.5201 8.37199 10.5201 8.41183 10.5072 8.46496C10.4942 8.63761 10.6238 8.79697 10.7922 8.81025C10.9607 8.82354 11.1162 8.69073 11.1291 8.51808C11.1291 8.47824 11.1291 8.43839 11.1421 8.37199C11.1421 8.30559 11.1421 8.26575 11.1421 8.2259C11.1421 7.84076 11.0773 7.4689 10.9607 7.11032C10.8052 6.6455 10.5331 6.2338 10.2091 5.8885C9.80743 5.4768 9.31503 5.18462 8.75785 5.02525C8.49869 4.95885 8.21362 4.91901 7.9415 4.91901C7.8508 4.91901 7.7601 4.91901 7.65643 4.93229C7.56573 4.94557 7.47502 4.95885 7.38432 4.97213C7.21587 4.99869 7.09925 5.17134 7.13812 5.33071C7.16404 5.50336 7.33249 5.62288 7.48798 5.58304C7.56573 5.56976 7.63052 5.55648 7.70826 5.55648C7.72122 5.55648 7.73418 5.55648 7.74714 5.55648C7.81193 5.55648 7.87672 5.5432 7.9415 5.5432C8.65418 5.5432 9.31503 5.83538 9.78151 6.32676C10.248 6.80487 10.5331 7.45562 10.546 8.18606V8.21262C10.546 8.26575 10.546 8.30559 10.546 8.33215Z" fill="white"/>
<path d="M12.2567 8.62451C12.2437 8.79716 12.3733 8.95653 12.5417 8.96981C12.7102 8.98309 12.8657 8.85029 12.8786 8.67764C12.8916 8.53155 12.8916 8.38546 12.8916 8.23937C12.8916 7.9472 12.8657 7.6683 12.8268 7.38941C12.6583 6.32695 12.153 5.37074 11.4403 4.6403C10.624 3.80362 9.53551 3.25911 8.33044 3.16614C8.20086 3.15286 8.05832 3.15286 7.92874 3.15286C7.78621 3.15286 7.64367 3.15286 7.50114 3.16614C7.3586 3.17942 7.21606 3.1927 7.07353 3.21927C6.90508 3.24583 6.78846 3.41848 6.82733 3.57785C6.85324 3.75049 7.0217 3.87002 7.17719 3.83018C7.2679 3.8169 7.34564 3.80362 7.43635 3.79034C7.47522 3.79034 7.51409 3.77706 7.55297 3.77706C7.68254 3.76377 7.81212 3.76378 7.92874 3.76378C8.36931 3.76378 8.78396 3.83018 9.18565 3.94971C9.88537 4.1622 10.5073 4.54734 11.0127 5.06528C11.4274 5.49027 11.7643 6.00821 11.9845 6.566C12.1789 7.07067 12.2955 7.62846 12.2955 8.21281C12.2955 8.25265 12.2955 8.30578 12.2955 8.34562C12.2696 8.45187 12.2567 8.53155 12.2567 8.62451Z" fill="white"/>
<path d="M12.6969 3.36529C11.466 2.10362 9.78144 1.33334 7.91551 1.33334C7.72115 1.33334 7.52678 1.34662 7.33241 1.3599C7.13804 1.37319 6.94368 1.39975 6.74931 1.43959C6.58086 1.46615 6.46424 1.6388 6.50311 1.79817C6.52903 1.97082 6.69748 2.09034 6.85297 2.0505C6.94368 2.03722 7.02142 2.02394 7.11213 2.01066C7.20283 1.99738 7.29354 1.9841 7.38424 1.9841C7.56565 1.97082 7.7341 1.95754 7.91551 1.95754C9.60003 1.95754 11.1291 2.66141 12.2434 3.79027C13.3448 4.91913 14.0316 6.48626 14.0316 8.22603C14.0316 8.319 14.0316 8.42524 14.0316 8.51821C14.0316 8.59789 14.0186 8.67758 14.0186 8.77054C14.0057 8.94319 14.1353 9.10256 14.3037 9.11584C14.4722 9.12912 14.6277 8.99631 14.6406 8.82366C14.6536 8.62445 14.6665 8.42524 14.6665 8.23931C14.6665 6.34017 13.915 4.61368 12.6969 3.36529Z" fill="white"/>
<path d="M14.1873 11.4132L11.8937 10.1515C11.1292 9.72657 11.1033 10.0055 10.2999 10.882C10.1055 11.0945 9.74272 11.6523 9.31511 11.546C8.42102 11.3203 6.74946 9.9789 6.20524 9.36799C5.94608 9.07581 4.83171 7.68134 4.81875 7.22979C4.79283 6.5392 6.27002 6.1939 5.79059 4.87911L4.76692 2.52842C3.80804 0.270703 1.12577 3.88306 1.34606 5.56971C1.9162 9.72657 9.03004 16.4466 12.9951 14.2287C13.8763 13.7241 15.0684 11.9577 14.1873 11.4132Z" fill="white"/>
</svg>
