<svg width="21" height="21" viewBox="0 0 21 21" fill="none" xmlns="http://www.w3.org/2000/svg">
<g clip-path="url(#clip0)">
<path d="M17.2581 7.1908C17.0867 6.44626 16.4777 5.89695 15.7446 5.81501C14.0085 5.62121 12.2513 5.6202 10.5022 5.62121C8.75287 5.6202 6.99541 5.62121 5.25934 5.81501C4.52664 5.89695 3.91809 6.44626 3.74669 7.1908C3.50275 8.25112 3.5 9.40855 3.5 10.5002C3.5 11.5919 3.5 12.7492 3.74394 13.8094C3.91505 14.5538 4.52375 15.1031 5.25688 15.1851C6.99281 15.3791 8.75013 15.3801 10.4995 15.3791C12.2492 15.3801 14.006 15.3791 15.7418 15.1851C16.4745 15.1032 17.0836 14.5539 17.255 13.8094C17.4991 12.749 17.5 11.5918 17.5 10.5002C17.5 9.40855 17.502 8.25112 17.2581 7.1908ZM8.69333 12.6732C8.69333 11.1245 8.69333 9.59208 8.69333 8.0433C10.1771 8.81748 11.651 9.58645 13.1441 10.3654C11.6556 11.1374 10.181 11.9017 8.69333 12.6732Z" fill="white"/>
</g>
<defs>
<clipPath id="clip0">
<rect width="14" height="14" fill="white" transform="translate(3.5 3.5)"/>
</clipPath>
</defs>
</svg>
